<svg width="1278" height="990" viewBox="0 0 1278 990" fill="none" xmlns="http://www.w3.org/2000/svg">
<path d="M427.426 430.406L430.572 448.916L440.117 430.406H446.973L442.525 456H437.357L438.623 448.705L441.119 437.314L431.311 456H427.777L424.35 436.664L422.697 449.268L421.52 456H416.369L420.816 430.406H427.426ZM462.494 450.727H453.564L450.928 456H445.25L458.926 430.406H463.689L468.559 456H463.303L462.494 450.727ZM455.674 446.455H461.844L460.402 436.928L455.674 446.455ZM485.223 449.162C485.469 447.768 484.783 446.701 483.166 445.963L479.773 444.609C475.836 442.852 473.967 440.432 474.166 437.35C474.248 435.92 474.717 434.654 475.572 433.553C476.428 432.451 477.629 431.59 479.176 430.969C480.723 430.336 482.393 430.031 484.186 430.055C486.658 430.102 488.656 430.84 490.18 432.27C491.703 433.688 492.453 435.592 492.43 437.982H487.297C487.355 436.822 487.098 435.92 486.523 435.275C485.961 434.631 485.082 434.297 483.887 434.273C482.715 434.25 481.695 434.52 480.828 435.082C479.961 435.633 479.445 436.395 479.281 437.367C479.059 438.645 479.914 439.658 481.848 440.408L484.168 441.287L485.504 441.902C488.961 443.613 490.578 446.016 490.355 449.109C490.25 450.621 489.764 451.928 488.896 453.029C488.041 454.119 486.869 454.957 485.381 455.543C483.904 456.129 482.275 456.404 480.494 456.369C478.678 456.334 477.061 455.953 475.643 455.227C474.225 454.5 473.146 453.475 472.408 452.15C471.717 450.92 471.395 449.514 471.441 447.932L476.592 447.949C476.428 450.727 477.793 452.139 480.687 452.186C481.941 452.186 482.973 451.91 483.781 451.359C484.59 450.809 485.07 450.076 485.223 449.162Z" fill="#135832"/>
<path d="M1209.18 772.003L1213.32 819.846L1263.59 832.927L1215.88 849.415L1220.02 897.258L1186.39 859.606L1138.67 876.094L1165.61 836.335L1131.98 798.682L1182.25 811.762L1209.18 772.003Z" fill="#76BDA5"/>
<path d="M102.181 381.003L106.321 428.846L156.595 441.927L108.879 458.415L113.019 506.258L79.3893 468.606L31.6735 485.094L58.6051 445.335L24.9756 407.682L75.2497 420.762L102.181 381.003Z" fill="#76BDA5"/>
<path d="M387.181 690.003L391.321 737.846L441.595 750.927L393.879 767.415L398.019 815.258L364.389 777.606L316.674 794.094L343.605 754.335L309.976 716.682L360.25 729.762L387.181 690.003Z" fill="#76BDA5"/>
<path d="M512.181 159.003L516.321 206.846L566.595 219.927L518.879 236.415L523.019 284.258L489.389 246.606L441.674 263.094L468.605 223.335L434.976 185.682L485.25 198.762L512.181 159.003Z" fill="#76BDA5"/>
<path d="M804.181 -17.9968L808.321 29.8464L858.595 42.9265L810.879 59.4151L815.019 107.258L781.389 69.6056L733.674 86.0942L760.605 46.335L726.976 8.68231L777.25 21.7624L804.181 -17.9968Z" fill="#76BDA5"/>
<path d="M975.181 405.003L979.321 452.846L1029.59 465.927L981.879 482.415L986.019 530.258L952.389 492.606L904.674 509.094L931.605 469.335L897.976 431.682L948.25 444.762L975.181 405.003Z" fill="#76BDA5"/>
<path d="M1252.18 123.003L1256.32 170.846L1306.59 183.927L1258.88 200.415L1263.02 248.258L1229.39 210.606L1181.67 227.094L1208.61 187.335L1174.98 149.682L1225.25 162.762L1252.18 123.003Z" fill="#76BDA5"/>
<path d="M853.645 885.122L857.784 932.965L908.058 946.045L860.343 962.534L864.482 1010.38L830.853 972.724L783.137 989.213L810.069 949.454L776.439 911.801L826.713 924.881L853.645 885.122Z" fill="#76BDA5"/>
<path d="M853.645 885.122L857.784 932.965L908.058 946.045L860.343 962.534L864.482 1010.38L830.853 972.724L783.137 989.213L810.069 949.454L776.439 911.801L826.713 924.881L853.645 885.122Z" fill="#76BDA5"/>
<path d="M151.645 -16.8779L155.784 30.9652L206.058 44.0454L158.343 60.5339L162.482 108.377L128.853 70.7244L81.1371 87.213L108.069 47.4538L74.4392 9.80117L124.713 22.8813L151.645 -16.8779Z" fill="#76BDA5"/>
<path d="M151.645 -16.8779L155.784 30.9652L206.058 44.0454L158.343 60.5339L162.482 108.377L128.853 70.7244L81.1371 87.213L108.069 47.4538L74.4392 9.80117L124.713 22.8813L151.645 -16.8779Z" fill="#76BDA5"/>
<path d="M436.312 480.5L441.906 513.406L458.875 480.5H471.062L463.156 526H453.969L456.219 513.031L460.656 492.781L443.219 526H436.937L430.844 491.625L427.906 514.031L425.812 526H416.656L424.562 480.5H436.312ZM485.125 513.125L494.781 492.188H504.594L484.812 531.094C483.396 534.073 481.729 536.26 479.812 537.656C477.917 539.052 475.719 539.75 473.219 539.75C472.24 539.75 470.823 539.531 468.969 539.094L469.625 532.219L470.844 532.281C473.719 532.365 475.823 531.312 477.156 529.125L479.094 525.531L473.562 492.188H482.687L485.125 513.125ZM545.406 516.625H529.531L524.844 526H514.75L539.062 480.5H547.531L556.187 526H546.844L545.406 516.625ZM533.281 509.031H544.25L541.687 492.094L533.281 509.031ZM575.031 519.375C576.656 519.417 578.01 518.979 579.094 518.062C580.177 517.125 580.885 515.885 581.219 514.344L589.5 514.312C589.354 516.688 588.604 518.823 587.25 520.719C585.917 522.615 584.125 524.094 581.875 525.156C579.646 526.219 577.292 526.719 574.812 526.656C570.708 526.594 567.458 525.177 565.062 522.406C562.667 519.635 561.51 515.948 561.594 511.344L561.687 509.625L561.719 509.281C562.281 503.781 564.135 499.427 567.281 496.219C570.427 492.99 574.312 491.438 578.937 491.562C582.75 491.646 585.771 492.896 588 495.312C590.25 497.708 591.354 500.875 591.312 504.812H583.094C583.094 503 582.698 501.573 581.906 500.531C581.115 499.49 579.927 498.927 578.344 498.844C574.135 498.719 571.583 501.792 570.687 508.062C570.375 510.333 570.26 512.25 570.344 513.812C570.552 517.458 572.115 519.312 575.031 519.375ZM610.781 483.875L609.312 492.188H614.937L613.781 498.812H608.156L605.281 515.75C605.156 516.812 605.24 517.625 605.531 518.188C605.823 518.75 606.531 519.052 607.656 519.094C607.99 519.115 608.885 519.062 610.344 518.938L609.719 525.844C608.156 526.365 606.469 526.604 604.656 526.562C601.76 526.521 599.604 525.615 598.187 523.844C596.771 522.073 596.187 519.677 596.437 516.656L599.344 498.812H594.562L595.719 492.188H600.5L601.937 483.875H610.781ZM623.531 526H614.656L620.531 492.188H629.406L623.531 526ZM621.562 483.594C621.521 482.198 621.979 481.042 622.937 480.125C623.896 479.208 625.052 478.75 626.406 478.75C627.74 478.708 628.896 479.115 629.875 479.969C630.854 480.823 631.365 481.927 631.406 483.281C631.448 484.573 631.01 485.698 630.094 486.656C629.198 487.615 628.021 488.115 626.562 488.156C625.25 488.198 624.094 487.802 623.094 486.969C622.115 486.135 621.604 485.01 621.562 483.594ZM645.25 514.844L654.875 492.188H664.375L648.031 526H639.594L633.812 492.188H642.75L645.25 514.844ZM672.031 526H663.156L669.031 492.188H677.906L672.031 526ZM670.062 483.594C670.021 482.198 670.479 481.042 671.437 480.125C672.396 479.208 673.552 478.75 674.906 478.75C676.24 478.708 677.396 479.115 678.375 479.969C679.354 480.823 679.865 481.927 679.906 483.281C679.948 484.573 679.51 485.698 678.594 486.656C677.698 487.615 676.521 488.115 675.062 488.156C673.75 488.198 672.594 487.802 671.594 486.969C670.615 486.135 670.104 485.01 670.062 483.594ZM695.594 526.625C692.635 526.604 690.01 525.885 687.719 524.469C685.448 523.031 683.75 521.073 682.625 518.594C681.5 516.094 681.062 513.344 681.312 510.344L681.406 509.094C681.719 505.802 682.677 502.781 684.281 500.031C685.885 497.281 687.948 495.167 690.469 493.688C692.99 492.188 695.781 491.479 698.844 491.562C703.198 491.646 706.49 493.25 708.719 496.375C710.969 499.479 711.823 503.417 711.281 508.188L710.781 512.031H690.062C689.979 514.219 690.51 515.969 691.656 517.281C692.802 518.594 694.365 519.271 696.344 519.312C699.552 519.396 702.365 518.156 704.781 515.594L708.812 520.594C707.542 522.51 705.708 524.01 703.312 525.094C700.917 526.156 698.344 526.667 695.594 526.625ZM698.406 498.844C696.781 498.802 695.333 499.312 694.062 500.375C692.812 501.438 691.687 503.281 690.687 505.906H702.812L703 505.094C703.125 504.26 703.135 503.469 703.031 502.719C702.823 501.51 702.312 500.573 701.5 499.906C700.687 499.219 699.656 498.865 698.406 498.844ZM733 516.469C733.333 514.802 732.177 513.594 729.531 512.844L726.687 512.125C719.958 510.271 716.687 507 716.875 502.312C716.979 499.125 718.385 496.531 721.094 494.531C723.823 492.51 727.104 491.521 730.937 491.562C734.75 491.604 737.833 492.615 740.187 494.594C742.542 496.573 743.74 499.208 743.781 502.5L735.031 502.469C735.073 499.573 733.635 498.104 730.719 498.062C729.344 498.062 728.146 498.406 727.125 499.094C726.125 499.781 725.51 500.708 725.281 501.875C724.969 503.542 726.229 504.719 729.062 505.406L730.312 505.688C733.187 506.375 735.385 507.167 736.906 508.062C738.427 508.938 739.594 510.031 740.406 511.344C741.24 512.656 741.625 514.229 741.562 516.062C741.5 518.208 740.802 520.083 739.469 521.688C738.156 523.292 736.344 524.531 734.031 525.406C731.74 526.281 729.323 526.688 726.781 526.625C723.031 526.583 719.906 525.51 717.406 523.406C714.906 521.281 713.635 518.542 713.594 515.188L721.906 515.25C721.99 518.479 723.719 520.115 727.094 520.156C728.719 520.156 730.052 519.823 731.094 519.156C732.156 518.49 732.792 517.594 733 516.469ZM787.062 513.844C787.5 511.365 786.281 509.469 783.406 508.156L777.375 505.75C770.375 502.625 767.052 498.323 767.406 492.844C767.552 490.302 768.385 488.052 769.906 486.094C771.427 484.135 773.562 482.604 776.312 481.5C779.062 480.375 782.031 479.833 785.219 479.875C789.615 479.958 793.167 481.271 795.875 483.812C798.583 486.333 799.917 489.719 799.875 493.969H790.75C790.854 491.906 790.396 490.302 789.375 489.156C788.375 488.01 786.812 487.417 784.687 487.375C782.604 487.333 780.792 487.812 779.25 488.812C777.708 489.792 776.792 491.146 776.5 492.875C776.104 495.146 777.625 496.948 781.062 498.281L785.187 499.844L787.562 500.938C793.708 503.979 796.583 508.25 796.187 513.75C796 516.438 795.135 518.76 793.594 520.719C792.073 522.656 789.99 524.146 787.344 525.188C784.719 526.229 781.823 526.719 778.656 526.656C775.427 526.594 772.552 525.917 770.031 524.625C767.51 523.333 765.594 521.51 764.281 519.156C763.052 516.969 762.479 514.469 762.562 511.656L771.719 511.688C771.427 516.625 773.854 519.135 779 519.219C781.229 519.219 783.062 518.729 784.5 517.75C785.937 516.771 786.792 515.469 787.062 513.844ZM832.437 509.188C832 512.729 831.073 515.875 829.656 518.625C828.24 521.375 826.479 523.417 824.375 524.75C822.271 526.083 819.937 526.719 817.375 526.656C814.104 526.573 811.521 525.354 809.625 523L806.531 539H797.719L805.812 492.188L813.937 492.156L813.344 495.562C815.781 492.812 818.656 491.479 821.969 491.562C825.281 491.646 827.854 492.854 829.687 495.188C831.521 497.5 832.5 500.646 832.625 504.625C832.667 505.917 832.604 507.438 832.437 509.188ZM823.687 508.531L823.875 505.531C823.917 503.51 823.542 501.906 822.75 500.719C821.979 499.531 820.844 498.917 819.344 498.875C816.781 498.792 814.667 499.875 813 502.125L810.469 516.062C811.24 518.167 812.896 519.26 815.437 519.344C817.562 519.406 819.333 518.583 820.75 516.875C822.167 515.167 823.146 512.385 823.687 508.531ZM854.781 526C854.51 525.146 854.396 524.125 854.437 522.938C851.896 525.479 849.021 526.708 845.812 526.625C842.854 526.583 840.396 525.625 838.437 523.75C836.5 521.854 835.594 519.521 835.719 516.75C835.865 513.062 837.406 510.24 840.344 508.281C843.302 506.302 847.26 505.312 852.219 505.312L856.344 505.375L856.781 503.344C856.906 502.656 856.937 502 856.875 501.375C856.771 500.396 856.396 499.635 855.75 499.094C855.125 498.531 854.292 498.24 853.25 498.219C851.875 498.177 850.708 498.521 849.75 499.25C848.792 499.958 848.177 500.99 847.906 502.344L839.062 502.375C839.208 499.146 840.687 496.531 843.5 494.531C846.333 492.51 849.823 491.521 853.969 491.562C857.802 491.646 860.802 492.792 862.969 495C865.135 497.188 866.042 500.01 865.687 503.469L863.094 519.656L862.937 521.656C862.896 523.135 863.073 524.385 863.469 525.406L863.437 526H854.781ZM848 519.781C850.542 519.865 852.76 518.76 854.656 516.469L855.75 510.625L852.687 510.594C849.437 510.677 847.094 511.667 845.656 513.562C845.135 514.25 844.812 515.094 844.687 516.094C844.521 517.219 844.75 518.115 845.375 518.781C846.021 519.427 846.896 519.76 848 519.781ZM883.656 519.375C885.281 519.417 886.635 518.979 887.719 518.062C888.802 517.125 889.51 515.885 889.844 514.344L898.125 514.312C897.979 516.688 897.229 518.823 895.875 520.719C894.542 522.615 892.75 524.094 890.5 525.156C888.271 526.219 885.917 526.719 883.437 526.656C879.333 526.594 876.083 525.177 873.687 522.406C871.292 519.635 870.135 515.948 870.219 511.344L870.312 509.625L870.344 509.281C870.906 503.781 872.76 499.427 875.906 496.219C879.052 492.99 882.937 491.438 887.562 491.562C891.375 491.646 894.396 492.896 896.625 495.312C898.875 497.708 899.979 500.875 899.937 504.812H891.719C891.719 503 891.323 501.573 890.531 500.531C889.74 499.49 888.552 498.927 886.969 498.844C882.76 498.719 880.208 501.792 879.312 508.062C879 510.333 878.885 512.25 878.969 513.812C879.177 517.458 880.74 519.312 883.656 519.375ZM917.594 526.625C914.635 526.604 912.01 525.885 909.719 524.469C907.448 523.031 905.75 521.073 904.625 518.594C903.5 516.094 903.062 513.344 903.312 510.344L903.406 509.094C903.719 505.802 904.677 502.781 906.281 500.031C907.885 497.281 909.948 495.167 912.469 493.688C914.99 492.188 917.781 491.479 920.844 491.562C925.198 491.646 928.49 493.25 930.719 496.375C932.969 499.479 933.823 503.417 933.281 508.188L932.781 512.031H912.062C911.979 514.219 912.51 515.969 913.656 517.281C914.802 518.594 916.365 519.271 918.344 519.312C921.552 519.396 924.365 518.156 926.781 515.594L930.812 520.594C929.542 522.51 927.708 524.01 925.312 525.094C922.917 526.156 920.344 526.667 917.594 526.625ZM920.406 498.844C918.781 498.802 917.333 499.312 916.062 500.375C914.812 501.438 913.687 503.281 912.687 505.906H924.812L925 505.094C925.125 504.26 925.135 503.469 925.031 502.719C924.823 501.51 924.312 500.573 923.5 499.906C922.687 499.219 921.656 498.865 920.406 498.844Z" fill="#135832"/>
</svg>
